# xmcd
#
# Track frame offsets:
#	150
#	12693
#	29829
#	43447
#	57653
#	70702
#	84762
#	98457
#	112032
#	123712
#	130436
#	144455
#
# Disc length: 2139 seconds
#
# Revision: 1
# Processed by: cddbd v1.5.2PL0 Copyright (c) Steve Scherf et al.
# Submitted via: audiograbber 1.83.01
#
DISCID=b508590c
DTITLE=Truck Stop - Das große Jubiläum - 07 - Teddy... Ich brumm' für euch!
DYEAR=2018
DGENRE=Country
TTITLE0=Jana
TTITLE1=Taufschein, Trauschein
TTITLE2=Jede Menge Hits
TTITLE3=Das süße Leben auf dem Land
TTITLE4=Loch gesucht und nicht gefunden
TTITLE5=Papa werden ist so leicht
TTITLE6=Ich wünsche mir zum Weihnachtsfest
TTITLE7=Gelbe Säcke, blauer Engel, grüner Punkt
TTITLE8=Das Nudelholz
TTITLE9=Wandrin' Star
TTITLE10=Erstmal 'nen Kaffee
TTITLE11=Wenn mein Bier bloß so kalt wär
EXTD=
EXTT0=
EXTT1=
EXTT2=
EXTT3=
EXTT4=
EXTT5=
EXTT6=
EXTT7=
EXTT8=
EXTT9=
EXTT10=
EXTT11=
PLAYORDER=
